<?xml version="1.0" standalone="no"?><!DOCTYPE svg PUBLIC "-//W3C//DTD SVG 1.1//EN" "http://www.w3.org/Graphics/SVG/1.1/DTD/svg11.dtd"><svg t="1716276835949" class="icon" viewBox="0 0 1024 1024" version="1.1" xmlns="http://www.w3.org/2000/svg" p-id="9377" xmlns:xlink="http://www.w3.org/1999/xlink" width="256" height="256"><path d="M591.730024 388.099549c0 1.153553 0.443674 2.307106 1.331023 3.194454 0.798614 0.798614 1.952166 1.331023 3.194454 1.331023h17.125823c1.153553 0 2.307106-0.443674 3.194454-1.331023 0.798614-0.798614 1.331023-1.952166 1.331023-3.194454v-126.180935c0-1.153553-0.443674-2.307106-1.331023-3.194455-0.976083-0.887348-2.129636-1.331023-3.283189-1.331022h-17.037088c-1.242288 0-2.395841 0.443674-3.194454 1.331022s-1.331023 1.952166-1.331023 3.194455v126.180935zM591.730024 489.878406c0 2.484575 2.040901 4.436742 4.525477 4.436741h17.125823c2.484575 0 4.436742-2.040901 4.436742-4.436741v-51.288735c0-1.153553-0.443674-2.307106-1.331023-3.194454-0.798614-0.798614-1.952166-1.331023-3.194454-1.331023h-17.037088c-1.153553 0-2.307106 0.443674-3.194454 1.331023s-1.331023 2.040901-1.331023 3.194454v51.288735z" fill="#AFAFB2" p-id="9378"></path><path d="M198.293075 925.948007c0 10.736915 4.259272 20.941421 11.801733 28.483882s17.835702 11.801733 28.483882 11.801733h335.151473c10.736915 0 20.941421-4.259272 28.483882-11.801733s11.801733-17.835702 11.801733-28.483882v-827.896014c0-22.272444-18.013172-40.37435-40.37435-40.37435h-334.974003c-10.736915 0-21.030156 4.259272-28.572617 11.801733s-11.801733 17.835702-11.801733 28.572617v827.896014z" fill="#D4D4D6" p-id="9379"></path><path d="M200.511445 923.818371c0 10.736915 4.259272 20.941421 11.801734 28.483882s17.835702 11.801733 28.483882 11.801733h330.714731c10.736915 0 20.941421-4.259272 28.483882-11.801733s11.801733-17.835702 11.801733-28.483882V103.198614c0-22.272444-18.013172-40.37435-40.37435-40.374351h-330.537262c-10.736915 0-20.941421 4.259272-28.483882 11.801734s-11.890468 17.835702-11.890468 28.572617v820.619757z" p-id="9380"></path><path d="M244.967598 69.390641c-10.64818 0-20.941421 4.259272-28.483882 11.801733s-11.801733 17.835702-11.801733 28.572617v801.630503c0 10.736915 4.259272 20.941421 11.801733 28.483882s17.835702 11.801733 28.483882 11.801733h322.462392c10.736915 0 20.941421-4.259272 28.483882-11.801733s11.801733-17.835702 11.801733-28.483882V109.764991c0-22.272444-18.013172-40.37435-40.37435-40.37435h-322.373657z" fill="#B6BCE2" p-id="9381"></path><path d="M272.652867 386.085269c-0.709879 1.331023-1.685962 2.484575-2.92825 3.283189l-58.653726 39.753206v452.281456c0 10.736915 4.259272 20.941421 11.801733 28.483882s17.835702 11.801733 28.483882 11.801733h316.073484c10.736915 0 20.941421-4.259272 28.483882-11.801733s11.801733-17.835702 11.801733-28.483882V337.813518l-64.687695-32.210745c-1.774697-0.887348-3.194454-2.307106-3.993068-3.993068l-38.422183-77.110572c-0.443674-0.798614-0.976083-1.597227-1.597227-2.21837l-50.312652-51.821144c-2.218371-2.307106-5.590295-3.283189-8.696014-2.395841-3.105719 0.798614-5.590295 3.283189-6.388908 6.388908l-10.736915 41.616638c-0.621144 2.218371-2.040901 4.170537-3.993068 5.412825l-26.97539 16.415945c-1.331023 0.798614-2.484575 1.952166-3.194454 3.371923l-26.97539 49.425304c-0.266205 0.443674-0.443674 0.887348-0.621144 1.331022l-8.429809 24.135875c-0.887348 2.57331-2.92825 4.614211-5.50156 5.50156l-46.585788 16.061005c-2.129636 0.709879-3.993068 2.307106-5.057886 4.348007l-22.893587 44.012479z" fill="#CCA7A9" p-id="9382"></path><path d="M204.681983 912.815251c0 10.736915 4.259272 20.941421 11.801733 28.483882s17.835702 11.801733 28.483882 11.801734h322.462392c10.736915 0 20.941421-4.259272 28.483882-11.801734s11.801733-17.835702 11.801733-28.483882V369.22565l-65.752513-32.210745c-1.774697-0.887348-3.194454-2.307106-4.081803-3.993068l-39.043327-77.199307c-0.443674-0.798614-0.976083-1.597227-1.597227-2.218371l-51.288735-52.176083c-2.218371-2.307106-5.590295-3.194454-8.696014-2.39584s-5.50156 3.283189-6.388908 6.388908l-10.914385 41.794107c-0.621144 2.307106-2.040901 4.170537-4.081802 5.412825l-27.419064 16.415945c-1.331023 0.798614-2.484575 1.952166-3.194454 3.371924l-27.33033 49.425303c-0.266205 0.443674-0.443674 0.887348-0.621144 1.331022l-8.518544 24.135876c-0.887348 2.57331-2.92825 4.614211-5.590294 5.501559l-47.473137 16.061006c-2.129636 0.709879-3.993068 2.307106-5.057886 4.259272l-23.337262 44.189948c-0.709879 1.331023-1.685962 2.484575-2.928249 3.283189l-59.718544 39.930675v452.281456z" fill="#EAC0C2" p-id="9383"></path><path d="M607.715605 805.889775l-62.114385-16.238475c-3.105719-0.798614-5.590295-3.283189-6.388908-6.388908l-33.719237-129.464125c-0.621144-2.307106-2.040901-4.259272-4.081803-5.50156l-106.836742-63.090468c-2.307106-1.419757-5.14662-1.597227-7.71993-0.709879l-101.690122 38.333449c-0.709879 0.266205-1.331023 0.621144-1.952166 1.064818l-72.141421 50.135182v207.462045c0 22.272444 18.013172 40.285615 40.37435 40.285616h315.984749c22.272444 0 40.37435-18.013172 40.37435-40.285616l-0.088735-75.602079z" fill="#93ABCC" p-id="9384"></path><path d="M607.715605 837.301906l-63.179203-16.238474c-3.105719-0.798614-5.590295-3.283189-6.477643-6.388909l-34.251646-129.464124c-0.621144-2.307106-2.129636-4.259272-4.170538-5.412825l-108.700173-63.179203c-2.307106-1.331023-5.14662-1.597227-7.631196-0.621144l-103.376083 38.244714c-0.709879 0.266205-1.331023 0.621144-1.952166 0.976083l-73.294974 50.135182v207.462045c0 22.272444 18.013172 40.285615 40.37435 40.285616h322.373657c22.272444 0 40.37435-18.013172 40.37435-40.285616l-0.088735-75.513345z" fill="#A4BFE4" p-id="9385"></path><path d="M210.756769 88.300035c-3.549393 6.477643-5.50156 13.842634-5.501559 21.385095v801.098094c0 7.542461 1.952166 14.907452 5.501559 21.385095v-843.868284zM601.633719 932.611993c3.549393-6.388908 5.50156-13.665165 5.50156-21.47383v-801.098094c0-7.542461-1.952166-14.907452-5.50156-21.385095v843.957019z" fill="#F6F7F8" opacity=".8" p-id="9386"></path><path d="M319.682329 62.824263h-2.484575V57.677643h2.484575v5.14662z m168.773657 0h2.484576V57.677643h-2.484576v5.14662zM345.770371 966.322357h2.484575v-2.129636h-2.484575v2.129636z" fill="#828282" p-id="9387"></path><path d="M252.851688 86.299064c-7.364991 0-13.39896 6.033969-13.39896 13.39896s6.033969 13.39896 13.39896 13.39896 13.39896-6.033969 13.39896-13.39896-5.945234-13.39896-13.39896-13.39896z" p-id="9388"></path><path d="M252.940423 95.172548c-2.484575 0-4.614211 2.040901-4.614212 4.614211 0 2.484575 2.040901 4.614211 4.614212 4.614212 2.484575 0 4.614211-2.040901 4.614211-4.614212-0.088735-2.57331-2.129636-4.614211-4.614211-4.614211z" fill="#324D70" p-id="9389"></path><path d="M251.254461 99.43182c-0.709879 0-1.331023-0.621144-1.331023-1.331023s0.621144-1.331023 1.331023-1.331022 1.331023 0.621144 1.331023 1.331022-0.532409 1.331023-1.331023 1.331023z m2.75078 2.75078c0-0.532409 0.443674-0.887348 0.887348-0.887349 0.532409 0 0.887348 0.443674 0.887349 0.887349 0 0.532409-0.443674 0.887348-0.887349 0.887348s-0.887348-0.443674-0.887348-0.887348z" fill="#5883A3" p-id="9390"></path><path d="M407.90339 257.393137c-1.242288 0-2.395841 0.443674-3.194454 1.331022s-1.331023 1.952166-1.331023 3.194455v126.180935c0 1.153553 0.443674 2.307106 1.331023 3.194454 0.798614 0.798614 1.952166 1.331023 3.194454 1.331023h2.484575v-135.231889h-2.484575zM407.90339 434.152929c-1.153553 0-2.307106 0.443674-3.194454 1.331022s-1.331023 1.952166-1.331023 3.10572v51.288735c0 2.484575 2.040901 4.525477 4.525477 4.525476h2.484575v-60.250953h-2.484575z" fill="#AFAFB2" p-id="9391"></path><path d="M450.226357 57.677643c-10.736915 0-21.030156 4.259272-28.572617 11.801733s-11.801733 17.835702-11.801733 28.572617v827.984749c0 10.736915 4.259272 20.941421 11.801733 28.483882s17.835702 11.801733 28.483882 11.801733h335.151473c10.736915 0 20.941421-4.259272 28.483882-11.801733s11.801733-17.835702 11.801734-28.483882V98.051993c0-22.272444-18.013172-40.37435-40.374351-40.37435h-334.974003z" fill="#5E5E5E" p-id="9392"></path><path d="M452.089789 61.227036c-10.736915 0-20.941421 4.259272-28.572617 11.801733s-11.801733 17.835702-11.801734 28.483883V923.729636c0 10.736915 4.259272 20.941421 11.801734 28.483882s17.835702 11.801733 28.483882 11.801733h331.42461c10.736915 0 20.941421-4.259272 28.483882-11.801733s11.801733-17.835702 11.801733-28.483882V101.512652c0-22.272444-18.013172-40.37435-40.37435-40.37435h-331.24714z" fill="#E7E7E7" p-id="9393"></path><path d="M775.971938 960.377123h-314.032583c-11.712998 0-22.804853-4.614211-31.145927-12.866551-8.341075-8.341075-12.866551-19.344194-12.866551-31.145927V109.143847c0-11.712998 4.614211-22.804853 12.866551-31.145927 8.341075-8.341075 19.432929-12.866551 31.145927-12.866551h314.032583c11.712998 0 22.804853 4.614211 31.145927 12.866551 8.341075 8.341075 12.866551 19.344194 12.866551 31.145927v807.309533c0 11.712998-4.614211 22.804853-12.866551 31.145927-8.341075 8.25234-19.344194 12.777816-31.145927 12.777816z m-314.032583-886.283535c-9.317158 0-18.190641 3.638128-24.757019 10.29324-6.655113 6.566378-10.293241 15.351127-10.293241 24.757019v807.309533c0 9.317158 3.638128 18.190641 10.293241 24.757019 6.655113 6.655113 15.439861 10.293241 24.757019 10.293241h314.032583c9.317158 0 18.190641-3.638128 24.757019-10.293241 6.655113-6.655113 10.293241-15.439861 10.293241-24.757019V109.143847c0-9.317158-3.638128-18.190641-10.293241-24.757019-6.655113-6.655113-15.439861-10.293241-24.757019-10.29324h-314.032583z" fill="#CCCCCC" p-id="9394"></path><path d="M535.500534 62.824263V57.677643h-2.484576v5.14662h2.484576z m168.862391 0V57.677643h2.484576v5.14662h-2.484576z m-28.572617 901.279723v2.129636h2.484576v-2.129636h-2.484576z" fill="#828282" p-id="9395"></path><path d="M579.694031 774.211438l-4.348007-6.832582-4.348007 6.832582-2.307105-1.419757 4.96915-7.8974-4.96915-7.897401 2.307105-1.419757 4.348007 6.832582 4.259272-6.743847 2.307106 1.419757-4.969151 7.808666 4.969151 7.8974-2.218371 1.419757z m22.272444-0.177469c-2.040901 0-4.525477-0.354939-6.211439-1.685962-1.153553-0.976083-1.774697-2.395841-1.774696-3.993068 0-1.685962 0.621144-3.016984 1.774696-3.993067 2.307106-1.952166 6.211438-1.863432 8.42981-1.597227v-3.283189c-0.088735-0.088735-0.17747-0.17747-0.35494-0.17747-0.709879-0.532409-1.242288-0.887348-3.371923-0.887348-2.218371 0-4.525477 1.508492-4.525477 1.508492l-1.508492-2.218371c0.088735-0.088735 2.92825-2.040901 6.033969-2.040901 2.75078 0 3.815598 0.621144 4.880416 1.331022 0.266205 0.17747 0.443674 0.354939 0.709878 0.443675l0.709879 0.354939v15.706066l-1.064818 0.177469c-0.17747 0.088735-1.774697 0.354939-3.726863 0.35494z m0.17747-8.784749c-1.685962 0-3.549393 0.266205-4.614212 1.153553-0.532409 0.443674-0.798614 1.064818-0.798613 1.952166 0 0.887348 0.266205 1.508492 0.798613 1.952167 1.508492 1.242288 4.791681 1.153553 6.743848 0.976083v-5.856499c-0.621144-0.088735-1.331023-0.17747-2.129636-0.17747z m17.658232 8.784749c-4.791681 0-8.163605-3.638128-8.163605-8.784749 0-5.945234 3.105719-9.672097 8.163605-9.672097 5.14662 0 8.25234 3.726863 8.252339 9.672097 0.088735 5.235355-3.371924 8.784749-8.252339 8.784749z m0-15.706066c-4.791681 0-5.50156 4.348007-5.50156 7.010052 0 2.839515 1.419757 6.033969 5.50156 6.033969 3.904333 0 5.590295-3.016984 5.590294-6.033969 0-2.129636-0.532409-7.010052-5.590294-7.010052z m45.609705 15.706066h-2.662045v-18.456846h2.662045v18.456846z m-8.873483 0h-2.662045v-14.108839c0-0.354939-0.266205-1.597227-2.573311-1.597227-2.484575 0-4.348007 1.508492-5.057885 2.129636v13.57643h-2.662045v-14.108839c0-0.443674-0.266205-1.597227-2.040902-1.597227-2.040901 0-4.702946 2.040901-6.033968 3.105719v12.600347h-2.662045v-18.456846h2.662045v2.395841c1.597227-1.153553 3.815598-2.395841 6.033968-2.395841 2.040901 0 3.283189 0.887348 3.993068 1.952166 1.331023-0.887348 3.283189-1.952166 5.767764-1.952166 4.348007 0 5.235355 3.105719 5.235356 4.259272v14.197574z m-67.438475 0h-2.662045v-18.279376h2.662045v18.279376z" fill="#B7B7B7" p-id="9396"></path><path d="M460.076811 257.357643c0 8.341075 3.283189 16.32721 9.228423 22.183709s13.842634 9.228423 22.183709 9.228423h269.931369c8.341075 0 16.32721-3.283189 22.183709-9.228423s9.228423-13.842634 9.228423-22.183709v-109.587522c0-8.341075-3.283189-16.32721-9.228423-22.183709s-13.842634-9.228423-22.183709-9.228422h-270.020104c-8.341075 0-16.32721 3.283189-22.183709 9.228422s-9.139688 13.931369-9.139688 22.183709v109.587522z" fill="#C9C9C8" p-id="9397"></path><path d="M451.824471 247.064402c0 8.341075 3.283189 16.32721 9.228423 22.183709s13.842634 9.228423 22.183709 9.228423h269.931369c8.341075 0 16.32721-3.283189 22.183709-9.228423s9.228423-13.842634 9.228423-22.183709v-109.587522c0-8.341075-3.283189-16.32721-9.228423-22.183708s-13.931369-9.139688-22.272444-9.139688h-269.931369c-8.25234 0-16.238475 3.283189-22.094974 9.228422s-9.228423 13.842634-9.228423 22.094974v109.587522z" fill="#0C0D0F" p-id="9398"></path><path d="M686.173172 225.058163c0 4.969151 3.993068 8.962218 8.962218 8.962218h51.643674c4.969151 0 8.962218-3.993068 8.962218-8.962218v-85.540381c0-4.969151-3.993068-8.962218-8.962218-8.962219h-51.643674c-2.395841 0-4.614211 0.976083-6.300173 2.662045-1.685962 1.685962-2.662045 3.993068-2.662045 6.300174v85.540381z" fill="#2B2D34" p-id="9399"></path><path d="M475.072998 250.170121c0 4.791681 1.863432 9.317158 5.235356 12.689082s7.8974 5.235355 12.689081 5.235355h120.235702c4.791681 0 9.317158-1.863432 12.689081-5.235355s5.235355-7.8974 5.235356-12.689082v-115.79896c0-9.938302-7.986135-17.924437-17.924437-17.924437h-120.235702c-4.791681 0-9.317158 1.863432-12.689081 5.235356s-5.235355 7.8974-5.235356 12.689081v115.79896z" fill="#2D2F33" p-id="9400"></path><path d="M479.864679 180.069601c0 4.791681 1.863432 9.317158 5.235356 12.689082 3.371924 3.371924 7.8974 5.235355 12.689081 5.235355h110.65234c4.791681 0 9.317158-1.863432 12.689081-5.235355 3.371924-3.371924 5.235355-7.8974 5.235356-12.689082v-41.172963c0-4.791681-1.863432-9.317158-5.235356-12.689082s-7.8974-5.235355-12.689081-5.235355h-110.65234c-4.791681 0-9.317158 1.863432-12.689081 5.235355s-5.235355 7.8974-5.235356 12.689082v41.172963z" fill="#0C0D0F" p-id="9401"></path><path d="M513.745414 128.322995c-14.286308 0-25.821837 11.535529-25.821837 25.821837s11.535529 25.821837 25.821837 25.821837 25.821837-11.535529 25.821837-25.821837-11.535529-25.821837-25.821837-25.821837z" fill="#101113" p-id="9402"></path><path d="M513.745414 182.00757c-15.351127 0-27.862738-12.511612-27.862738-27.862738s12.511612-27.862738 27.862738-27.862738 27.862738 12.511612 27.862739 27.862738-12.511612 27.862738-27.862739 27.862738z m0-51.643674c-13.132756 0-23.780936 10.64818-23.780936 23.780936s10.64818 23.780936 23.780936 23.780936 23.780936-10.64818 23.780936-23.780936-10.64818-23.780936-23.780936-23.780936z" fill="#27282C" p-id="9403"></path><path d="M513.745414 140.390932c-7.631196 0-13.753899 6.122704-13.753899 13.7539 0 7.542461 6.122704 13.753899 13.753899 13.753899 7.542461 0 13.753899-6.122704 13.7539-13.753899 0-7.542461-6.211438-13.753899-13.7539-13.7539z" fill="#22609A" p-id="9404"></path><path d="M513.745414 169.939633c-8.696014 0-15.794801-7.098787-15.7948-15.794801s7.098787-15.794801 15.7948-15.794801 15.794801 7.098787 15.794801 15.794801-7.098787 15.794801-15.794801 15.794801z m0-27.507799c-6.477643 0-11.712998 5.235355-11.712998 11.712998 0 6.477643 5.235355 11.712998 11.712998 11.712998 6.477643 0 11.712998-5.235355 11.712998-11.712998 0-6.477643-5.235355-11.712998-11.712998-11.712998z" fill="#27282C" p-id="9405"></path><path d="M513.567945 147.667189c1.419757 0 2.662045 0.354939 3.726863 0.532409 1.597227 0.354939 2.662045 0.621144 2.662045-0.532409 0-2.040901-2.839515-3.638128-6.300174-3.638128-3.549393 0-6.300173 1.597227-6.300173 3.638128 0 1.242288 1.064818 0.976083 2.662045 0.532409 0.887348-0.266205 2.129636-0.532409 3.549394-0.532409z m0 12.689081c-1.419757 0-2.662045-0.17747-3.726864-0.354939-1.597227-0.266205-2.662045-0.443674-2.662045 0.354939 0 1.242288 2.839515 2.307106 6.300174 2.307106 3.460659 0 6.300173-0.976083 6.300173-2.307106 0-0.798614-1.064818-0.621144-2.662045-0.354939-0.887348 0.17747-2.129636 0.354939-3.549393 0.354939z" fill="#7BD8FF" p-id="9406"></path><path d="M592.473622 128.322995c-14.286308 0-25.821837 11.535529-25.821837 25.821837s11.535529 25.821837 25.821837 25.821837 25.821837-11.535529 25.821837-25.821837-11.535529-25.821837-25.821837-25.821837z" fill="#101113" p-id="9407"></path><path d="M592.473622 182.00757c-15.351127 0-27.862738-12.511612-27.862738-27.862738s12.511612-27.862738 27.862738-27.862738 27.862738 12.511612 27.862738 27.862738-12.511612 27.862738-27.862738 27.862738z m0-51.643674c-13.132756 0-23.780936 10.64818-23.780936 23.780936s10.64818 23.780936 23.780936 23.780936 23.780936-10.64818 23.780936-23.780936-10.64818-23.780936-23.780936-23.780936z" fill="#27282C" p-id="9408"></path><path d="M592.473622 140.390932c-7.631196 0-13.753899 6.122704-13.753899 13.7539 0 7.542461 6.122704 13.753899 13.753899 13.753899 7.542461 0 13.753899-6.122704 13.7539-13.753899 0-7.542461-6.211438-13.753899-13.7539-13.7539z" fill="#2E4464" p-id="9409"></path><path d="M592.473622 169.939633c-8.696014 0-15.794801-7.098787-15.794801-15.794801s7.098787-15.794801 15.794801-15.794801 15.794801 7.098787 15.794801 15.794801-7.098787 15.794801-15.794801 15.794801z m0-27.507799c-6.477643 0-11.712998 5.235355-11.712998 11.712998 0 6.477643 5.235355 11.712998 11.712998 11.712998 6.477643 0 11.712998-5.235355 11.712998-11.712998 0-6.477643-5.235355-11.712998-11.712998-11.712998z" fill="#0B7080" p-id="9410"></path><path d="M592.296153 147.667189c1.419757 0 2.662045 0.354939 3.726863 0.532409 1.597227 0.354939 2.662045 0.621144 2.662045-0.532409 0-2.040901-2.839515-3.638128-6.300174-3.638128-3.460659 0-6.300173 1.597227-6.300173 3.638128 0 1.242288 1.064818 0.976083 2.662045 0.532409 0.887348-0.266205 2.129636-0.532409 3.549394-0.532409z m0 12.689081c-1.419757 0-2.662045-0.17747-3.726864-0.354939-1.597227-0.266205-2.662045-0.443674-2.662045 0.354939 0 1.242288 2.839515 2.307106 6.300174 2.307106 3.460659 0 6.300173-0.976083 6.300173-2.307106 0-0.798614-1.064818-0.621144-2.662045-0.354939-0.887348 0.17747-2.129636 0.354939-3.549393 0.354939z" fill="#6196FF" p-id="9411"></path><path d="M499.250579 237.102142c0 2.395841 0.976083 4.614211 2.662045 6.300173 1.685962 1.685962 3.993068 2.662045 6.300173 2.662045h11.091855c2.395841 0 4.614211-0.976083 6.300173-2.662045 1.685962-1.685962 2.662045-3.993068 2.662045-6.300173v-17.480762c0-2.395841-0.976083-4.614211-2.662045-6.300174s-3.993068-2.662045-6.300173-2.662045h-11.091855c-2.395841 0-4.614211 0.976083-6.300173 2.662045s-2.662045 3.993068-2.662045 6.300174v17.480762z" fill="#15344A" p-id="9412"></path><path d="M519.304652 248.371466h-11.091855c-3.016984 0-5.767764-1.153553-7.8974-3.283189-2.129636-2.129636-3.283189-4.969151-3.283189-7.8974v-17.569497c0-3.016984 1.153553-5.767764 3.283189-7.897401 2.129636-2.129636 4.969151-3.283189 7.8974-3.283189h11.091855c3.016984 0 5.767764 1.153553 7.8974 3.283189 2.129636 2.129636 3.283189 4.969151 3.283189 7.897401v17.480762c0 3.016984-1.153553 5.767764-3.283189 7.8974-2.129636 2.218371-4.969151 3.371924-7.8974 3.371924z m-11.091855-35.493934c-1.774697 0-3.460659 0.709879-4.791681 1.952166-1.242288 1.242288-1.952166 2.92825-1.952166 4.791682v17.480762c0 1.774697 0.709879 3.460659 1.952166 4.791681 1.242288 1.242288 2.92825 1.952166 4.791681 1.952167h11.091855c1.774697 0 3.460659-0.709879 4.791681-1.952167 1.242288-1.242288 1.952166-2.92825 1.952166-4.791681v-17.480762c0-1.774697-0.709879-3.460659-1.952166-4.791682-1.242288-1.242288-2.92825-1.952166-4.791681-1.952166h-11.091855z" fill="#0C0D0F" p-id="9413"></path><path d="M513.714357 217.846683c-5.767764 0-10.559445 4.702946-10.559445 10.559445s4.702946 10.559445 10.559445 10.559446 10.559445-4.702946 10.559445-10.559446-4.702946-10.559445-10.559445-10.559445z" fill="#4A87BF" p-id="9414"></path><path d="M513.714357 240.562801c-6.655113 0-12.156672-5.50156-12.156672-12.156673s5.50156-12.156672 12.156672-12.156672 12.156672 5.412825 12.156672 12.156672-5.412825 12.156672-12.156672 12.156673z m0-21.207626c-4.880416 0-8.962218 4.081802-8.962218 9.050953s3.993068 8.962218 8.962218 8.962219 9.050953-3.993068 9.050953-8.962219-4.081802-9.050953-9.050953-9.050953z" fill="#37577A" p-id="9415"></path><path d="M513.625622 223.348243c1.064818 0 2.040901 0.266205 2.839515 0.443674 1.242288 0.266205 2.040901 0.532409 2.040901-0.443674 0-1.597227-2.218371-2.839515-4.880416-2.839515s-4.880416 1.242288-4.880416 2.839515c0 0.976083 0.798614 0.709879 2.040901 0.443674 0.798614-0.17747 1.774697-0.443674 2.839515-0.443674z m0 9.849566c-1.064818 0-2.040901-0.17747-2.839515-0.266204-1.242288-0.17747-2.040901-0.266205-2.040901 0.266204 0 0.976083 2.218371 1.774697 4.880416 1.774697s4.880416-0.798614 4.880416-1.774697c0-0.621144-0.798614-0.443674-2.040901-0.266204-0.798614 0.088735-1.774697 0.266205-2.839515 0.266204z" fill="#5BA0D5" p-id="9416"></path><path d="M576.361151 241.09521h-33.541768v-1.774697h33.541768v1.774697z m14.020104-6.211439h-47.561872v-1.774696h47.650607v1.774696zM564.381948 229.204742c-2.307106 0-4.081802-1.863432-4.081802-4.081803v-3.460658c0-2.307106 1.863432-4.081802 4.081802-4.081803 1.064818 0 2.129636 0.443674 2.92825 1.242288 0.798614 0.798614 1.242288 1.774697 1.242287 2.92825v3.460658c0 2.129636-1.863432 3.993068-4.170537 3.993068z m0-9.849567c-1.242288 0-2.307106 1.064818-2.307106 2.307106v3.460658c0 1.242288 1.064818 2.307106 2.307106 2.307106s2.307106-1.064818 2.307106-2.307106v-3.460658c0-0.621144-0.266205-1.242288-0.709879-1.597227-0.354939-0.443674-0.976083-0.709879-1.597227-0.709879z m-7.542461 9.760832h-6.921317l-0.443674-1.685962c0.088735 0 4.880416-2.484575 4.880416-5.945234 0-0.709879-0.17747-1.242288-0.621144-1.508492-0.976083-0.798614-3.016984-0.532409-3.726863-0.354939l-0.443674-1.774697c0.354939-0.088735 3.371924-0.709879 5.235355 0.709879 0.621144 0.443674 1.331023 1.331023 1.331022 2.928249 0 2.57331-1.774697 4.525477-3.371923 5.856499h3.904332v1.774697z m17.480763-0.266205l-1.508493-0.976083 2.92825-4.348007-2.92825-4.436741 1.508493-0.976084 2.57331 3.815598 2.484575-3.726863 1.508492 0.976083-2.928249 4.348007 2.75078 4.170538-1.508492 0.976083-2.395841-3.549394-2.484575 3.726863z m2.484575-5.32409z m-31.855806 4.702947h-1.774697v-10.204506h1.774697v10.204506z" fill="#A6A6A6" p-id="9417"></path><path d="M640.539508 168.223501c0 3.194454 2.57331 5.856499 5.856499 5.856499 3.194454 0 5.856499-2.57331 5.856499-5.856499v-28.128943c0-1.508492-0.621144-3.016984-1.685962-4.081802s-2.662045-1.774697-4.170537-1.774697c-1.597227 0-3.105719 0.621144-4.170537 1.685962s-1.685962 2.57331-1.685962 4.170537v28.128943z" fill="#9F9A9F" p-id="9418"></path><path d="M646.396007 136.722634c-3.283189 0-5.856499 2.57331-5.856499 5.767765s2.57331 5.856499 5.856499 5.856499 5.856499-2.57331 5.856499-5.856499-2.662045-5.767764-5.856499-5.767765z" fill="#DED9DE" p-id="9419"></path><path d="M646.396007 149.85539c-2.307106 0-4.170537 1.863432-4.170537 4.170537s1.863432 4.170537 4.170537 4.170537 4.170537-1.863432 4.170537-4.170537-1.863432-4.170537-4.170537-4.170537z" fill="#C38B4D" p-id="9420"></path><path d="M646.396007 159.882426c-3.283189 0-5.856499-2.57331-5.856499-5.767764s2.57331-5.767764 5.767764-5.767764 5.767764 2.57331 5.767764 5.767764-2.484575 5.767764-5.679029 5.767764z m0-8.341074c-1.419757 0-2.57331 1.153553-2.57331 2.57331s1.153553 2.57331 2.57331 2.57331 2.57331-1.153553 2.57331-2.57331-1.153553-2.57331-2.57331-2.57331z" fill="#DED9DE" p-id="9421"></path><path d="M646.396007 161.479653c-2.307106 0-4.170537 1.863432-4.170537 4.170538s1.863432 4.170537 4.170537 4.170537 4.170537-1.863432 4.170537-4.170537-1.863432-4.170537-4.170537-4.170538z" fill="#C38B4D" p-id="9422"></path><path d="M646.396007 171.417955c-3.283189 0-5.856499-2.57331-5.856499-5.767764s2.57331-5.767764 5.767764-5.767765 5.767764 2.57331 5.767764 5.767765-2.484575 5.767764-5.679029 5.767764z m0-8.341075c-1.419757 0-2.57331 1.153553-2.57331 2.573311s1.153553 2.57331 2.57331 2.57331 2.57331-1.153553 2.57331-2.57331-1.153553-2.57331-2.57331-2.573311z" fill="#DED9DE" p-id="9423"></path><path d="M703.831404 153.715355c-2.839515 0-5.14662 2.307106-5.146621 5.146621 0 2.839515 2.307106 5.14662 5.146621 5.14662s5.14662-2.307106 5.14662-5.14662c0-2.839515-2.307106-5.14662-5.14662-5.146621z" fill="#891C21" p-id="9424"></path></svg>